<?xml version="1.0" encoding="UTF-8" standalone="no"?>
<!-- Created with Inkscape (http://www.inkscape.org/) -->

<svg
   width="105.83333mm"
   height="82.020836mm"
   viewBox="0 0 105.83332 82.020836"
   version="1.1"
   id="svg1"
   inkscape:version="1.3.2 (091e20e, 2023-11-25, custom)"
   sodipodi:docname="logo.svg"
   inkscape:export-filename="logo.png"
   inkscape:export-xdpi="300"
   inkscape:export-ydpi="300"
   xmlns:inkscape="http://www.inkscape.org/namespaces/inkscape"
   xmlns:sodipodi="http://sodipodi.sourceforge.net/DTD/sodipodi-0.dtd"
   xmlns="http://www.w3.org/2000/svg"
   xmlns:svg="http://www.w3.org/2000/svg">
  <sodipodi:namedview
     id="namedview1"
     pagecolor="#ffffff"
     bordercolor="#666666"
     borderopacity="1.0"
     inkscape:showpageshadow="2"
     inkscape:pageopacity="0.0"
     inkscape:pagecheckerboard="0"
     inkscape:deskcolor="#d1d1d1"
     inkscape:document-units="mm"
     inkscape:zoom="1.0242632"
     inkscape:cx="254.81732"
     inkscape:cy="183.05842"
     inkscape:window-width="1920"
     inkscape:window-height="1009"
     inkscape:window-x="-8"
     inkscape:window-y="-8"
     inkscape:window-maximized="1"
     inkscape:current-layer="layer1" />
  <defs
     id="defs1" />
  <g
     inkscape:label="Ebene 1"
     inkscape:groupmode="layer"
     id="layer1"
     transform="translate(-55.03332,-94.471267)">
    <path
       id="path31"
       style="fill:#f2f2f2;stroke:none;stroke-width:0.26765px;stroke-linecap:butt;stroke-linejoin:miter;stroke-opacity:1"
       d="m 111.78681,94.471267 -6.68116,18.397823 h 4.68104 l 5.1671,-13.978002 h 8.1195 l -9.443,26.020902 h 4.74473 l 10.98001,-30.440723 z m 31.36751,0 -7.81721,21.571293 H 124.9481 l -1.62786,4.75428 h 15.07108 l 7.91745,-21.905752 h 8.13516 l -18.58317,51.396382 h -8.11219 l 7.73368,-21.76749 H 85.374932 l -5.034478,14.02611 H 94.19351 l -4.153203,12.36266 h 17.535863 l 6.63938,-18.95988 h -4.61316 l -5.16709,14.3386 h -8.165966 l 4.196006,-11.88478 H 86.488546 l 2.154132,-5.6682 h 40.581832 l -8.02499,22.17426 h 17.551 L 160.86665,94.471267 Z M 76.83359,116.04256 55.03332,176.4921 h 17.661161 l 7.856368,-21.58335 h 5.707459 l 1.63309,-4.62128 h -10.49604 l -7.827656,21.80425 h -8.129421 l 18.577958,-51.29488 h 31.631691 l 1.64823,-4.75428 z" />
  </g>
</svg>
